<svg width="153" height="40" viewBox="0 0 153 40" fill="none" xmlns="http://www.w3.org/2000/svg">
<path d="M10.872 5.73599C15.256 5.73599 18.664 6.64799 21.096 8.47199C23.528 10.296 24.744 13 24.744 16.584C24.744 20.328 23.544 23.16 21.144 25.08C18.776 26.968 15.592 27.912 11.592 27.912H7.992V39H0.119995V5.73599H10.872ZM10.92 22.248C12.776 22.248 14.184 21.816 15.144 20.952C16.136 20.056 16.632 18.6 16.632 16.584C16.632 13.096 14.68 11.352 10.776 11.352H7.992V22.248H10.92Z" fill="#0B0C12"/>
<path d="M46.5289 31.608C46.5289 32.568 46.6569 33.272 46.9129 33.72C47.2009 34.168 47.6489 34.504 48.2569 34.728L46.6729 39.672C45.1049 39.544 43.8249 39.208 42.8329 38.664C41.8409 38.088 41.0729 37.192 40.5289 35.976C38.8649 38.536 36.3049 39.816 32.8489 39.816C30.3209 39.816 28.3049 39.08 26.8009 37.608C25.2969 36.136 24.5449 34.216 24.5449 31.848C24.5449 29.064 25.5689 26.936 27.6169 25.464C29.6649 23.992 32.6249 23.256 36.4969 23.256H39.0889V22.152C39.0889 20.648 38.7689 19.624 38.1289 19.08C37.4889 18.504 36.3689 18.216 34.7689 18.216C33.9369 18.216 32.9289 18.344 31.7449 18.6C30.5609 18.824 29.3449 19.144 28.0969 19.56L26.3689 14.568C27.9689 13.96 29.6009 13.496 31.2649 13.176C32.9609 12.856 34.5289 12.696 35.9689 12.696C39.6169 12.696 42.2889 13.448 43.9849 14.952C45.6809 16.456 46.5289 18.712 46.5289 21.72V31.608ZM35.0569 34.392C36.7849 34.392 38.1289 33.576 39.0889 31.944V27.432H37.2169C35.4889 27.432 34.1929 27.736 33.3289 28.344C32.4969 28.952 32.0809 29.896 32.0809 31.176C32.0809 32.2 32.3369 33 32.8489 33.576C33.3929 34.12 34.1289 34.392 35.0569 34.392Z" fill="#0B0C12"/>
<path d="M67.4977 12.696C69.7057 12.696 71.4337 13.368 72.6817 14.712C73.9297 16.056 74.5537 17.944 74.5537 20.376V39H66.9697V21.672C66.9697 20.392 66.7617 19.512 66.3457 19.032C65.9617 18.52 65.3698 18.264 64.5697 18.264C63.0337 18.264 61.5617 19.368 60.1537 21.576V39H52.5697V13.512H59.1937L59.7217 16.536C60.8097 15.256 61.9777 14.296 63.2257 13.656C64.5057 13.016 65.9297 12.696 67.4977 12.696Z" fill="#0B0C12"/>
<path d="M89.2489 12.696C91.0729 12.696 92.7849 12.968 94.3849 13.512C95.9849 14.056 97.3929 14.824 98.6089 15.816L95.8249 20.088C93.7449 18.776 91.6489 18.12 89.5369 18.12C88.5449 18.12 87.7769 18.296 87.2329 18.648C86.7209 18.968 86.4649 19.432 86.4649 20.04C86.4649 20.52 86.5769 20.92 86.8009 21.24C87.0569 21.528 87.5529 21.832 88.2889 22.152C89.0249 22.472 90.1609 22.856 91.6969 23.304C94.3529 24.072 96.3209 25.08 97.6009 26.328C98.9129 27.544 99.5689 29.24 99.5689 31.416C99.5689 33.144 99.0729 34.648 98.0809 35.928C97.0889 37.176 95.7289 38.136 94.0009 38.808C92.2729 39.48 90.3529 39.816 88.2409 39.816C86.0969 39.816 84.0969 39.48 82.2409 38.808C80.4169 38.136 78.8649 37.208 77.5849 36.024L81.2809 31.896C83.4249 33.56 85.6809 34.392 88.0489 34.392C89.2009 34.392 90.0969 34.184 90.7369 33.768C91.4089 33.352 91.7449 32.76 91.7449 31.992C91.7449 31.384 91.6169 30.904 91.3609 30.552C91.1049 30.2 90.6089 29.88 89.8729 29.592C89.1369 29.272 87.9689 28.888 86.3689 28.44C83.8409 27.704 81.9529 26.68 80.7049 25.368C79.4569 24.056 78.8329 22.424 78.8329 20.472C78.8329 19 79.2489 17.688 80.0809 16.536C80.9449 15.352 82.1609 14.424 83.7289 13.752C85.3289 13.048 87.1689 12.696 89.2489 12.696Z" fill="#0B0C12"/>
<path d="M111.06 13.512V39H103.476V13.512H111.06ZM107.22 0.071991C108.532 0.071991 109.604 0.487991 110.436 1.31999C111.3 2.11999 111.732 3.14399 111.732 4.39199C111.732 5.63999 111.3 6.67999 110.436 7.51199C109.604 8.31199 108.532 8.71199 107.22 8.71199C105.908 8.71199 104.836 8.31199 104.004 7.51199C103.172 6.67999 102.756 5.63999 102.756 4.39199C102.756 3.14399 103.172 2.11999 104.004 1.31999C104.836 0.487991 105.908 0.071991 107.22 0.071991Z" fill="#0B0C12"/>
<path d="M131.951 12.696C134.159 12.696 135.887 13.368 137.135 14.712C138.383 16.056 139.007 17.944 139.007 20.376V39H131.423V21.672C131.423 20.392 131.215 19.512 130.799 19.032C130.415 18.52 129.823 18.264 129.023 18.264C127.487 18.264 126.015 19.368 124.607 21.576V39H117.023V13.512H123.647L124.175 16.536C125.263 15.256 126.431 14.296 127.679 13.656C128.959 13.016 130.383 12.696 131.951 12.696Z" fill="#0B0C12"/>
<path d="M152.31 13.512V39H144.726V13.512H152.31ZM148.47 0.071991C149.782 0.071991 150.854 0.487991 151.686 1.31999C152.55 2.11999 152.982 3.14399 152.982 4.39199C152.982 5.63999 152.55 6.67999 151.686 7.51199C150.854 8.31199 149.782 8.71199 148.47 8.71199C147.158 8.71199 146.086 8.31199 145.254 7.51199C144.422 6.67999 144.006 5.63999 144.006 4.39199C144.006 3.14399 144.422 2.11999 145.254 1.31999C146.086 0.487991 147.158 0.071991 148.47 0.071991Z" fill="#0B0C12"/>
</svg>
